<svg xmlns="http://www.w3.org/2000/svg" viewBox="0 0 1822 1131.501"><defs><style>.a{fill:#dadada;}.b{fill:none;stroke:#dadada;}</style></defs><g transform="translate(-24 -40)"><rect class="a" width="20" height="62.641" transform="translate(24 939.726)"/><rect class="a" width="20" height="38.641" transform="translate(84 1002.726)"/><line class="b" y2="135" transform="translate(94.5 1036.5)"/><rect class="a" width="20" height="62.641" transform="translate(144 939.726)"/><line class="b" y2="178" transform="translate(154.5 993.5)"/><rect class="a" width="20" height="53.641" transform="translate(204 885.726)"/><line class="b" y2="238" transform="translate(214.5 933.5)"/><rect class="a" width="20" height="19.641" transform="translate(264 939.726)"/><line class="b" y2="218" transform="translate(274.5 953.5)"/><rect class="a" width="20" height="15.641" transform="translate(324 923.726)"/><line class="b" y2="241" transform="translate(334.5 930.5)"/><rect class="a" width="20" height="24.641" transform="translate(384 939.726)"/><line class="b" y2="214" transform="translate(394.5 957.5)"/><rect class="a" width="20" height="57.641" transform="translate(444 964.726)"/><line class="b" y2="169" transform="translate(454.5 1002.5)"/><rect class="a" width="20" height="24.641" transform="translate(504 939.726)"/><line class="b" y2="222" transform="translate(514.5 949.5)"/><rect class="a" width="20" height="62.641" transform="translate(564 876.726)"/><line class="b" y2="253" transform="translate(574.5 918.5)"/><rect class="a" width="20" height="53" transform="translate(625 819)"/><line class="b" x2="1" y2="216" transform="translate(634.5 864.5)"/><rect class="a" width="20" height="29" transform="translate(685 790)"/><line class="b" x1="1" y2="352" transform="translate(694.5 819.5)"/><rect class="a" width="20" height="77" transform="translate(745 713)"/><line class="b" x1="1" y2="383" transform="translate(754.5 788.5)"/><rect class="a" width="20" height="24" transform="translate(805 689)"/><line class="b" x1="1" y2="470" transform="translate(814.5 701.5)"/><rect class="a" width="20" height="39" transform="translate(864 713)"/><line class="b" y2="429" transform="translate(874.5 742.5)"/><rect class="a" width="20" height="23" transform="translate(924 752)"/><line class="b" y2="408" transform="translate(934.5 763.5)"/><rect class="a" width="20" height="20" transform="translate(984 732)"/><line class="b" y2="429" transform="translate(994.5 742.5)"/><rect class="a" width="20" height="32" transform="translate(1044 701)"/><line class="b" y2="460" transform="translate(1054.5 711.5)"/><rect class="a" width="20" height="55" transform="translate(1104 733)"/><line class="b" y2="383" transform="translate(1114.5 788.5)"/><rect class="a" width="20" height="16" transform="translate(1164 788)"/><line class="b" y2="375" transform="translate(1174.5 796.5)"/><rect class="a" width="20" height="112" transform="translate(1224 676)"/><line class="b" y2="396" transform="translate(1234.5 775.5)"/><rect class="a" width="20" height="52" transform="translate(1285 624)"/><line class="b" x1="1" y2="507" transform="translate(1294.5 664.5)"/><rect class="a" width="18" height="52" transform="translate(1354 572)"/><line class="b" y2="549" transform="translate(1354.5 622.5)"/><rect class="a" width="20" height="26" transform="translate(1404 624)"/><line class="b" y2="521" transform="translate(1414.5 650.5)"/><rect class="a" width="21" height="51" transform="translate(1464 650)"/><line class="b" y2="482" transform="translate(1474.5 689.5)"/><line class="b" y2="521" transform="translate(1534.5 650.5)"/><rect class="a" width="20" height="184" transform="translate(1584 366)"/><line class="b" y2="631" transform="translate(1594.5 540.5)"/><rect class="a" width="23" height="22" transform="translate(1644 550)"/><line class="b" x1="1" y2="599" transform="translate(1654.5 572.5)"/><rect class="a" width="20" height="280" transform="translate(1704 270)"/><line class="b" y2="621" transform="translate(1714.5 550.5)"/><rect class="a" width="20" height="190" transform="translate(1764 80)"/><line class="b" y2="920" transform="translate(1774.5 251.5)"/><rect class="a" width="20" height="100" transform="translate(1524 550)"/><rect class="a" width="22" height="40" transform="translate(1824 40)"/><line class="b" y2="178" transform="translate(34.5 993.5)"/></g></svg>