<svg xmlns="http://www.w3.org/2000/svg" viewBox="0 0 240.18 109.804"><defs><style>.a,.d{fill:#fff;}.a,.c{stroke:#404040;stroke-width:3px;}.b{fill:#939292;font-size:17px;font-family:HelveticaNeue-Medium, Helvetica Neue;font-weight:500;}.c{fill:#1c75bc;}.d{fill-rule:evenodd;}</style></defs><g transform="translate(-1372.596 -506)"><path class="a" d="M4.037,59.986c-10.135-1.47,8.552,3.975,10.1-20.448H3.5a3.5,3.5,0,0,1-3.5-3.5V3.5A3.5,3.5,0,0,1,3.5,0H176.276a3.5,3.5,0,0,1,3.5,3.5V36.038a3.5,3.5,0,0,1-3.5,3.5H29.862C28.236,54.084,16.7,60.2,7.1,60.2A21.407,21.407,0,0,1,4.037,59.986Z" transform="translate(1431.5 507.5)"/><text class="b" transform="translate(1469.816 531.239)"><tspan x="0" y="0">It’s mooning!</tspan></text><g transform="translate(1374.096 561.096)"><circle class="c" cx="26.604" cy="26.604" r="26.604"/><path class="d" d="M40.622,15.08,37.233,25.69s-2.09,5.289-7.063,5.289H6.195l1.71-5.289H29.632l3.42-10.61h-21.7L13.036,9.79H36.885C42.111,9.79,40.622,15.08,40.622,15.08ZM7.05,17.93H19.909l-1.647,4.909H5.371Z" transform="translate(3.56 6.489)"/></g></g></svg>