<svg xmlns="http://www.w3.org/2000/svg" viewBox="0 0 200.9 91.804"><defs><style>.a{fill:#627eea;}.a,.f{stroke:#404040;stroke-width:3px;}.b{fill:#c5c6dd;}.c,.f{fill:#fff;}.d{fill:#939dc3;}.e{fill:#ccd1d9;}.g{fill:#939292;font-size:17px;font-family:HelveticaNeue-Medium, Helvetica Neue;font-weight:500;}</style></defs><g transform="translate(-1175.1 -246)"><g transform="translate(1176.6 283.55)"><ellipse class="a" cx="26.377" cy="26.377" rx="26.377" ry="26.377"/><g transform="translate(14.837 6.594)"><path class="b" d="M7.5,0V14.623l12.359,5.523Z" transform="translate(4.863)"/><path class="c" d="M12.361,0,0,20.145l12.361-5.523Z"/><path class="b" d="M7.5,20.791v9.936l12.368-17.11Z" transform="translate(4.863 8.831)"/><path class="c" d="M12.361,30.726V20.789L0,13.616Z" transform="translate(0 8.831)"/><path class="d" d="M7.5,21.568l12.359-7.176L7.5,8.872Z" transform="translate(4.863 5.754)"/><path class="e" d="M0,14.391l12.361,7.176V8.872Z" transform="translate(0 5.754)"/></g></g><path class="f" d="M-875.424-768.468c-7.723-1.152,6.518,3.116,7.7-16.033H-875a3.5,3.5,0,0,1-3.5-3.5v-24a3.5,3.5,0,0,1,3.5-3.5h130a3.5,3.5,0,0,1,3.5,3.5v24a3.5,3.5,0,0,1-3.5,3.5H-855.743c-1.239,11.4-10.029,16.2-17.346,16.2A15.853,15.853,0,0,1-875.424-768.468Z" transform="translate(2116 1063)"/><text class="g" transform="translate(1251 269)"><tspan x="0" y="0">Should I sell?</tspan></text></g></svg>