<svg xmlns="http://www.w3.org/2000/svg" viewBox="0 0 513 306"><defs><style>.a,.b{fill:#fff;}.a,.e,.f{stroke:#707070;}.a,.b,.c{stroke-width:3px;}.b,.c{stroke:#404040;}.c,.d,.e{fill:#404040;}.f{fill:#dadada;}.g{fill:#ebebeb;}.h{fill:#99efde;}.i{fill:#db8895;}.j{stroke:none;}.k{fill:none;}</style></defs><g transform="translate(-995 -315)"><g class="a" transform="translate(995 315)"><rect class="j" width="513" height="273" rx="13"/><rect class="k" x="1.5" y="1.5" width="510" height="270" rx="11.5"/></g><g class="b" transform="translate(995 315)"><rect class="j" width="513" height="273" rx="13"/><rect class="k" x="1.5" y="1.5" width="510" height="270" rx="11.5"/></g><g class="c" transform="translate(1191 588)"><rect class="j" width="127" height="30"/><rect class="k" x="1.5" y="1.5" width="124" height="27"/></g><rect class="d" width="235" height="5" transform="translate(1137 616)"/><g class="e" transform="translate(1012 332)"><rect class="j" width="35" height="241"/><rect class="k" x="0.5" y="0.5" width="34" height="240"/></g><g class="e" transform="translate(1012 332)"><rect class="j" width="35" height="241"/><rect class="k" x="0.5" y="0.5" width="34" height="240"/></g><g class="f" transform="translate(1289 332)"><rect class="j" width="202" height="241"/><rect class="k" x="0.5" y="0.5" width="201" height="240"/></g><rect class="g" width="118" height="9" rx="4.5" transform="translate(1060 338)"/><rect class="g" width="195" height="9" rx="4.5" transform="translate(1060 367)"/><rect class="g" width="59" height="9" rx="4.5" transform="translate(1060 396)"/><rect class="g" width="104" height="9" rx="4.5" transform="translate(1060 425)"/><rect class="g" width="45" height="9" rx="4.5" transform="translate(1060 454)"/><rect class="g" width="84" height="9" rx="4.5" transform="translate(1060 483)"/><rect class="g" width="195" height="9" rx="4.5" transform="translate(1060 512)"/><rect class="g" width="186" height="20" rx="10" transform="translate(1060 544)"/><rect class="g" width="21" height="15" rx="7.5" transform="translate(1260 547)"/><rect class="h" width="32" height="10" rx="4" transform="translate(1304.5 438.5) rotate(90)"/><rect class="h" width="32" height="10" rx="4" transform="translate(1324.5 409.5) rotate(90)"/><rect class="i" width="13" height="10" rx="4" transform="translate(1344.5 438.5) rotate(90)"/><rect class="h" width="16" height="10" rx="4" transform="translate(1364.5 425.5) rotate(90)"/><rect class="i" width="16" height="10" rx="4" transform="translate(1384.5 438.5) rotate(90)"/><rect class="i" width="16" height="10" rx="4" transform="translate(1404.5 454.5) rotate(90)"/><rect class="h" width="16" height="10" rx="4" transform="translate(1424.5 438.5) rotate(90)"/><rect class="h" width="29" height="10" rx="4" transform="translate(1444.5 409.5) rotate(90)"/><rect class="i" width="20" height="10" rx="4" transform="translate(1464.5 438.5) rotate(90)"/><rect class="h" width="57" height="10" rx="4" transform="translate(1484.5 381.5) rotate(90)"/></g></svg>